<?xml version="1.0" encoding="UTF-8"?><svg xmlns="http://www.w3.org/2000/svg" xmlns:xlink="http://www.w3.org/1999/xlink" fill-opacity="1" color-rendering="auto" color-interpolation="auto" text-rendering="auto" stroke="black" stroke-linecap="square" width="444" stroke-miterlimit="10" shape-rendering="auto" stroke-opacity="1" fill="black" stroke-dasharray="none" font-weight="normal" stroke-width="1" height="431" font-family="'Dialog'" font-style="normal" stroke-linejoin="miter" font-size="12px" stroke-dashoffset="0" image-rendering="auto">
  <!--Generated by ySVG 2.5-->
  <defs id="genericDefs"/>
  <g>
    <defs id="defs1">
      <clipPath clipPathUnits="userSpaceOnUse" id="clipPath1">
        <path d="M0 0 L444 0 L444 431 L0 431 L0 0 Z"/>
      </clipPath>
      <clipPath clipPathUnits="userSpaceOnUse" id="clipPath2">
        <path d="M427 141 L871 141 L871 572 L427 572 L427 141 Z"/>
      </clipPath>
    </defs>
    <g fill="rgb(51,153,102)" text-rendering="geometricPrecision" shape-rendering="geometricPrecision" transform="matrix(1,0,0,1,-427,-141)" stroke="rgb(51,153,102)">
      <rect x="442.3145" y="156.6172" clip-path="url(#clipPath2)" width="413.3711" rx="4" ry="4" height="400.3828" stroke="none"/>
    </g>
    <g fill="rgb(235,235,235)" text-rendering="geometricPrecision" shape-rendering="geometricPrecision" transform="matrix(1,0,0,1,-427,-141)" stroke="rgb(235,235,235)">
      <rect x="442.3145" width="413.3711" height="21.4609" y="156.6172" clip-path="url(#clipPath2)" stroke="none"/>
    </g>
    <g font-size="15px" stroke-linecap="butt" transform="matrix(1,0,0,1,-427,-141)" text-rendering="geometricPrecision" font-family="sans-serif" shape-rendering="geometricPrecision" font-weight="bold" stroke-miterlimit="1.45">
      <text x="604.5493" xml:space="preserve" y="172.5405" clip-path="url(#clipPath2)" stroke="none">CubeArray</text>
    </g>
    <g text-rendering="geometricPrecision" stroke-miterlimit="1.45" stroke-dasharray="6,2" shape-rendering="geometricPrecision" transform="matrix(1,0,0,1,-427,-141)" stroke-linecap="butt">
      <rect x="442.3145" y="156.6172" clip-path="url(#clipPath2)" fill="none" width="413.3711" rx="4" ry="4" height="400.3828"/>
    </g>
    <g fill="rgb(0,184,235)" text-rendering="geometricPrecision" shape-rendering="geometricPrecision" transform="matrix(1,0,0,1,-427,-141)" stroke="rgb(0,184,235)">
      <rect x="457.3145" y="400.5391" clip-path="url(#clipPath2)" width="126.6855" rx="4" ry="4" height="141.4609" stroke="none"/>
      <rect x="457.3145" y="400.5391" clip-path="url(#clipPath2)" fill="rgb(235,235,235)" width="126.6855" height="21.4609" stroke="none"/>
    </g>
    <g font-size="15px" stroke-linecap="butt" transform="matrix(1,0,0,1,-427,-141)" text-rendering="geometricPrecision" font-family="sans-serif" shape-rendering="geometricPrecision" font-weight="bold" stroke-miterlimit="1.45">
      <text x="499.3584" xml:space="preserve" y="416.4624" clip-path="url(#clipPath2)" stroke="none">Cube</text>
    </g>
    <g text-rendering="geometricPrecision" stroke-miterlimit="1.45" stroke-width="2" shape-rendering="geometricPrecision" transform="matrix(1,0,0,1,-427,-141)" stroke-linecap="butt">
      <rect x="457.3145" y="400.5391" clip-path="url(#clipPath2)" fill="none" width="126.6855" rx="4" ry="4" height="141.4609"/>
    </g>
    <g fill="rgb(255,204,0)" text-rendering="geometricPrecision" shape-rendering="geometricPrecision" transform="matrix(1,0,0,1,-427,-141)" stroke="rgb(255,204,0)">
      <circle r="15" clip-path="url(#clipPath2)" cx="502" cy="482" stroke="none"/>
    </g>
    <g stroke-linecap="butt" transform="matrix(1,0,0,1,-427,-141)" text-rendering="geometricPrecision" font-family="sans-serif" shape-rendering="geometricPrecision" font-weight="bold" stroke-miterlimit="1.45">
      <text x="474.3145" xml:space="preserve" y="514.1387" clip-path="url(#clipPath2)" stroke="none">Element</text>
      <circle fill="none" r="15" clip-path="url(#clipPath2)" cx="502" cy="482"/>
    </g>
    <g fill="rgb(255,204,0)" text-rendering="geometricPrecision" shape-rendering="geometricPrecision" transform="matrix(1,0,0,1,-427,-141)" stroke="rgb(255,204,0)">
      <circle r="15" clip-path="url(#clipPath2)" cx="554" cy="512" stroke="none"/>
    </g>
    <g text-rendering="geometricPrecision" stroke-miterlimit="1.45" shape-rendering="geometricPrecision" transform="matrix(1,0,0,1,-427,-141)" stroke-linecap="butt">
      <circle fill="none" r="15" clip-path="url(#clipPath2)" cx="554" cy="512"/>
    </g>
    <g fill="rgb(255,204,0)" text-rendering="geometricPrecision" shape-rendering="geometricPrecision" transform="matrix(1,0,0,1,-427,-141)" stroke="rgb(255,204,0)">
      <circle r="15" clip-path="url(#clipPath2)" cx="554" cy="452" stroke="none"/>
    </g>
    <g text-rendering="geometricPrecision" stroke-miterlimit="1.45" shape-rendering="geometricPrecision" transform="matrix(1,0,0,1,-427,-141)" stroke-linecap="butt">
      <circle fill="none" r="15" clip-path="url(#clipPath2)" cx="554" cy="452"/>
    </g>
    <g fill="rgb(0,184,235)" text-rendering="geometricPrecision" shape-rendering="geometricPrecision" transform="matrix(1,0,0,1,-427,-141)" stroke="rgb(0,184,235)">
      <rect x="599" y="400.5391" clip-path="url(#clipPath2)" width="126.6855" rx="4" ry="4" height="141.4609" stroke="none"/>
      <rect x="599" y="400.5391" clip-path="url(#clipPath2)" fill="rgb(235,235,235)" width="126.6855" height="21.4609" stroke="none"/>
    </g>
    <g font-size="15px" stroke-linecap="butt" transform="matrix(1,0,0,1,-427,-141)" text-rendering="geometricPrecision" font-family="sans-serif" shape-rendering="geometricPrecision" font-weight="bold" stroke-miterlimit="1.45">
      <text x="641.0439" xml:space="preserve" y="416.4624" clip-path="url(#clipPath2)" stroke="none">Cube</text>
    </g>
    <g text-rendering="geometricPrecision" stroke-miterlimit="1.45" stroke-width="2" shape-rendering="geometricPrecision" transform="matrix(1,0,0,1,-427,-141)" stroke-linecap="butt">
      <rect x="599" y="400.5391" clip-path="url(#clipPath2)" fill="none" width="126.6855" rx="4" ry="4" height="141.4609"/>
    </g>
    <g fill="rgb(255,204,0)" text-rendering="geometricPrecision" shape-rendering="geometricPrecision" transform="matrix(1,0,0,1,-427,-141)" stroke="rgb(255,204,0)">
      <circle r="15" clip-path="url(#clipPath2)" cx="643.6855" cy="482" stroke="none"/>
    </g>
    <g stroke-linecap="butt" transform="matrix(1,0,0,1,-427,-141)" text-rendering="geometricPrecision" font-family="sans-serif" shape-rendering="geometricPrecision" font-weight="bold" stroke-miterlimit="1.45">
      <text x="616" xml:space="preserve" y="514.1387" clip-path="url(#clipPath2)" stroke="none">Element</text>
      <circle fill="none" r="15" clip-path="url(#clipPath2)" cx="643.6855" cy="482"/>
    </g>
    <g fill="rgb(255,204,0)" text-rendering="geometricPrecision" shape-rendering="geometricPrecision" transform="matrix(1,0,0,1,-427,-141)" stroke="rgb(255,204,0)">
      <circle r="15" clip-path="url(#clipPath2)" cx="695.6855" cy="512" stroke="none"/>
    </g>
    <g text-rendering="geometricPrecision" stroke-miterlimit="1.45" shape-rendering="geometricPrecision" transform="matrix(1,0,0,1,-427,-141)" stroke-linecap="butt">
      <circle fill="none" r="15" clip-path="url(#clipPath2)" cx="695.6855" cy="512"/>
    </g>
    <g fill="rgb(255,204,0)" text-rendering="geometricPrecision" shape-rendering="geometricPrecision" transform="matrix(1,0,0,1,-427,-141)" stroke="rgb(255,204,0)">
      <circle r="15" clip-path="url(#clipPath2)" cx="695.6855" cy="452" stroke="none"/>
    </g>
    <g text-rendering="geometricPrecision" stroke-miterlimit="1.45" shape-rendering="geometricPrecision" transform="matrix(1,0,0,1,-427,-141)" stroke-linecap="butt">
      <circle fill="none" r="15" clip-path="url(#clipPath2)" cx="695.6855" cy="452"/>
    </g>
    <g fill="rgb(0,184,235)" text-rendering="geometricPrecision" shape-rendering="geometricPrecision" transform="matrix(1,0,0,1,-427,-141)" stroke="rgb(0,184,235)">
      <rect x="599" y="244.0781" clip-path="url(#clipPath2)" width="126.6855" rx="4" ry="4" height="141.4609" stroke="none"/>
      <rect x="599" y="244.0781" clip-path="url(#clipPath2)" fill="rgb(235,235,235)" width="126.6855" height="21.4609" stroke="none"/>
    </g>
    <g font-size="15px" stroke-linecap="butt" transform="matrix(1,0,0,1,-427,-141)" text-rendering="geometricPrecision" font-family="sans-serif" shape-rendering="geometricPrecision" font-weight="bold" stroke-miterlimit="1.45">
      <text x="641.0439" xml:space="preserve" y="260.0015" clip-path="url(#clipPath2)" stroke="none">Cube</text>
    </g>
    <g text-rendering="geometricPrecision" stroke-miterlimit="1.45" stroke-width="2" shape-rendering="geometricPrecision" transform="matrix(1,0,0,1,-427,-141)" stroke-linecap="butt">
      <rect x="599" y="244.0781" clip-path="url(#clipPath2)" fill="none" width="126.6855" rx="4" ry="4" height="141.4609"/>
    </g>
    <g fill="rgb(255,204,0)" text-rendering="geometricPrecision" shape-rendering="geometricPrecision" transform="matrix(1,0,0,1,-427,-141)" stroke="rgb(255,204,0)">
      <circle r="15" clip-path="url(#clipPath2)" cx="643.6855" cy="325.5391" stroke="none"/>
    </g>
    <g stroke-linecap="butt" transform="matrix(1,0,0,1,-427,-141)" text-rendering="geometricPrecision" font-family="sans-serif" shape-rendering="geometricPrecision" font-weight="bold" stroke-miterlimit="1.45">
      <text x="616" xml:space="preserve" y="357.6777" clip-path="url(#clipPath2)" stroke="none">Element</text>
      <circle fill="none" r="15" clip-path="url(#clipPath2)" cx="643.6855" cy="325.5391"/>
    </g>
    <g fill="rgb(255,204,0)" text-rendering="geometricPrecision" shape-rendering="geometricPrecision" transform="matrix(1,0,0,1,-427,-141)" stroke="rgb(255,204,0)">
      <circle r="15" clip-path="url(#clipPath2)" cx="695.6855" cy="355.5391" stroke="none"/>
    </g>
    <g text-rendering="geometricPrecision" stroke-miterlimit="1.45" shape-rendering="geometricPrecision" transform="matrix(1,0,0,1,-427,-141)" stroke-linecap="butt">
      <circle fill="none" r="15" clip-path="url(#clipPath2)" cx="695.6855" cy="355.5391"/>
    </g>
    <g fill="rgb(255,204,0)" text-rendering="geometricPrecision" shape-rendering="geometricPrecision" transform="matrix(1,0,0,1,-427,-141)" stroke="rgb(255,204,0)">
      <circle r="15" clip-path="url(#clipPath2)" cx="695.6855" cy="295.5391" stroke="none"/>
    </g>
    <g text-rendering="geometricPrecision" stroke-miterlimit="1.45" shape-rendering="geometricPrecision" transform="matrix(1,0,0,1,-427,-141)" stroke-linecap="butt">
      <circle fill="none" r="15" clip-path="url(#clipPath2)" cx="695.6855" cy="295.5391"/>
    </g>
    <g fill="rgb(0,184,235)" text-rendering="geometricPrecision" shape-rendering="geometricPrecision" transform="matrix(1,0,0,1,-427,-141)" stroke="rgb(0,184,235)">
      <rect x="457.3145" y="244.0781" clip-path="url(#clipPath2)" width="126.6855" rx="4" ry="4" height="141.4609" stroke="none"/>
      <rect x="457.3145" y="244.0781" clip-path="url(#clipPath2)" fill="rgb(235,235,235)" width="126.6855" height="21.4609" stroke="none"/>
    </g>
    <g font-size="15px" stroke-linecap="butt" transform="matrix(1,0,0,1,-427,-141)" text-rendering="geometricPrecision" font-family="sans-serif" shape-rendering="geometricPrecision" font-weight="bold" stroke-miterlimit="1.45">
      <text x="499.3584" xml:space="preserve" y="260.0015" clip-path="url(#clipPath2)" stroke="none">Cube</text>
    </g>
    <g text-rendering="geometricPrecision" stroke-miterlimit="1.45" stroke-width="2" shape-rendering="geometricPrecision" transform="matrix(1,0,0,1,-427,-141)" stroke-linecap="butt">
      <rect x="457.3145" y="244.0781" clip-path="url(#clipPath2)" fill="none" width="126.6855" rx="4" ry="4" height="141.4609"/>
    </g>
    <g fill="rgb(255,204,0)" text-rendering="geometricPrecision" shape-rendering="geometricPrecision" transform="matrix(1,0,0,1,-427,-141)" stroke="rgb(255,204,0)">
      <circle r="15" clip-path="url(#clipPath2)" cx="502" cy="325.5391" stroke="none"/>
    </g>
    <g stroke-linecap="butt" transform="matrix(1,0,0,1,-427,-141)" text-rendering="geometricPrecision" font-family="sans-serif" shape-rendering="geometricPrecision" font-weight="bold" stroke-miterlimit="1.45">
      <text x="474.3145" xml:space="preserve" y="357.6777" clip-path="url(#clipPath2)" stroke="none">Element</text>
      <circle fill="none" r="15" clip-path="url(#clipPath2)" cx="502" cy="325.5391"/>
    </g>
    <g fill="rgb(255,204,0)" text-rendering="geometricPrecision" shape-rendering="geometricPrecision" transform="matrix(1,0,0,1,-427,-141)" stroke="rgb(255,204,0)">
      <circle r="15" clip-path="url(#clipPath2)" cx="554" cy="355.5391" stroke="none"/>
    </g>
    <g text-rendering="geometricPrecision" stroke-miterlimit="1.45" shape-rendering="geometricPrecision" transform="matrix(1,0,0,1,-427,-141)" stroke-linecap="butt">
      <circle fill="none" r="15" clip-path="url(#clipPath2)" cx="554" cy="355.5391"/>
    </g>
    <g fill="rgb(255,204,0)" text-rendering="geometricPrecision" shape-rendering="geometricPrecision" transform="matrix(1,0,0,1,-427,-141)" stroke="rgb(255,204,0)">
      <circle r="15" clip-path="url(#clipPath2)" cx="554" cy="295.5391" stroke="none"/>
    </g>
    <g text-rendering="geometricPrecision" stroke-miterlimit="1.45" shape-rendering="geometricPrecision" transform="matrix(1,0,0,1,-427,-141)" stroke-linecap="butt">
      <circle fill="none" r="15" clip-path="url(#clipPath2)" cx="554" cy="295.5391"/>
    </g>
  </g>
</svg>
