<?xml version="1.0" encoding="UTF-8"?><svg xmlns="http://www.w3.org/2000/svg" xmlns:xlink="http://www.w3.org/1999/xlink" fill-opacity="1" color-rendering="auto" color-interpolation="auto" text-rendering="auto" stroke="black" stroke-linecap="square" width="277" stroke-miterlimit="10" shape-rendering="auto" stroke-opacity="1" fill="black" stroke-dasharray="none" font-weight="normal" stroke-width="1" height="274" font-family="'Dialog'" font-style="normal" stroke-linejoin="miter" font-size="12px" stroke-dashoffset="0" image-rendering="auto">
  <!--Generated by ySVG 2.5-->
  <defs id="genericDefs"/>
  <g>
    <defs id="defs1">
      <clipPath clipPathUnits="userSpaceOnUse" id="clipPath1">
        <path d="M0 0 L277 0 L277 274 L0 274 L0 0 Z"/>
      </clipPath>
      <clipPath clipPathUnits="userSpaceOnUse" id="clipPath2">
        <path d="M425 207 L702 207 L702 481 L425 481 L425 207 Z"/>
      </clipPath>
    </defs>
    <g fill="rgb(255,204,0)" text-rendering="geometricPrecision" shape-rendering="geometricPrecision" transform="matrix(1,0,0,1,-425,-207)" stroke="rgb(255,204,0)">
      <rect x="500" width="127" height="31" y="222" clip-path="url(#clipPath2)" stroke="none"/>
    </g>
    <g stroke-linecap="butt" transform="matrix(1,0,0,1,-425,-207)" text-rendering="geometricPrecision" font-family="sans-serif" shape-rendering="geometricPrecision" font-weight="bold" stroke-miterlimit="1.45">
      <text x="515.3945" xml:space="preserve" y="241.6543" clip-path="url(#clipPath2)" stroke="none">Generate C&amp;Q</text>
      <rect fill="none" x="500" width="127" height="31" y="222" clip-path="url(#clipPath2)"/>
    </g>
    <g fill="rgb(255,204,0)" text-rendering="geometricPrecision" shape-rendering="geometricPrecision" transform="matrix(1,0,0,1,-425,-207)" stroke="rgb(255,204,0)">
      <rect x="440" width="247" height="31" y="293" clip-path="url(#clipPath2)" stroke="none"/>
    </g>
    <g stroke-linecap="butt" transform="matrix(1,0,0,1,-425,-207)" text-rendering="geometricPrecision" font-family="sans-serif" shape-rendering="geometricPrecision" font-weight="bold" stroke-miterlimit="1.45">
      <text x="447.0449" xml:space="preserve" y="312.6543" clip-path="url(#clipPath2)" stroke="none">Exchange C&amp;Q between processes</text>
      <rect fill="none" x="440" width="247" height="31" y="293" clip-path="url(#clipPath2)"/>
    </g>
    <g fill="rgb(255,204,0)" text-rendering="geometricPrecision" shape-rendering="geometricPrecision" transform="matrix(1,0,0,1,-425,-207)" stroke="rgb(255,204,0)">
      <rect x="482.5" width="162" height="31" y="364" clip-path="url(#clipPath2)" stroke="none"/>
    </g>
    <g stroke-linecap="butt" transform="matrix(1,0,0,1,-425,-207)" text-rendering="geometricPrecision" font-family="sans-serif" shape-rendering="geometricPrecision" font-weight="bold" stroke-miterlimit="1.45">
      <text x="497.5322" xml:space="preserve" y="383.6543" clip-path="url(#clipPath2)" stroke="none">Divide C into Cubes</text>
      <rect fill="none" x="482.5" width="162" height="31" y="364" clip-path="url(#clipPath2)"/>
    </g>
    <g fill="rgb(255,204,0)" text-rendering="geometricPrecision" shape-rendering="geometricPrecision" transform="matrix(1,0,0,1,-425,-207)" stroke="rgb(255,204,0)">
      <rect x="497" width="133" height="31" y="435" clip-path="url(#clipPath2)" stroke="none"/>
    </g>
    <g stroke-linecap="butt" transform="matrix(1,0,0,1,-425,-207)" text-rendering="geometricPrecision" font-family="sans-serif" shape-rendering="geometricPrecision" font-weight="bold" stroke-miterlimit="1.45">
      <text x="512.4619" xml:space="preserve" y="454.6543" clip-path="url(#clipPath2)" stroke="none">kNN for each Q</text>
      <rect fill="none" x="497" width="133" height="31" y="435" clip-path="url(#clipPath2)"/>
      <path fill="none" d="M563.5 253 L563.5 285" clip-path="url(#clipPath2)"/>
      <path d="M563.5 293 L568.5 281 L563.5 284 L558.5 281 Z" stroke="none" clip-path="url(#clipPath2)"/>
      <path fill="none" d="M563.5 324 L563.5 356" clip-path="url(#clipPath2)"/>
      <path d="M563.5 364 L568.5 352 L563.5 355 L558.5 352 Z" stroke="none" clip-path="url(#clipPath2)"/>
      <path fill="none" d="M563.5 395 L563.5 427" clip-path="url(#clipPath2)"/>
      <path d="M563.5 435 L568.5 423 L563.5 426 L558.5 423 Z" stroke="none" clip-path="url(#clipPath2)"/>
    </g>
  </g>
</svg>
